<svg width="31" height="21" viewBox="0 0 31 21" fill="none" xmlns="http://www.w3.org/2000/svg">
<path d="M5.5 20.5H15.5M5.5 20.5C3.85333 20.5 2.98833 20.4783 2.32 20.1367C1.69257 19.8167 1.18262 19.3061 0.863333 18.6783C0.5 17.9667 0.5 17.0333 0.5 15.1667V5.83333C0.5 3.96667 0.5 3.03333 0.863333 2.32C1.18333 1.69167 1.69167 1.18333 2.32 0.863333C3.03333 0.5 3.96667 0.5 5.83333 0.5H25.1667C27.0333 0.5 27.9667 0.5 28.6783 0.863333C29.3067 1.18333 29.8167 1.69167 30.1367 2.32C30.5 3.03167 30.5 3.965 30.5 5.82833V15.1717C30.5 17.035 30.5 17.9667 30.1367 18.6783C29.8169 19.3064 29.3064 19.8169 28.6783 20.1367C27.9667 20.5 27.035 20.5 25.1717 20.5H15.5M5.5 20.5C5.5 18.6583 7.73833 17.1667 10.5 17.1667C13.2617 17.1667 15.5 18.6583 15.5 20.5M25.5 13.8333H18.8333M25.5 8.83333H20.5M10.5 12.1667C9.61594 12.1667 8.7681 11.8155 8.14298 11.1904C7.51786 10.5652 7.16667 9.71739 7.16667 8.83333C7.16667 7.94928 7.51786 7.10143 8.14298 6.47631C8.7681 5.85119 9.61594 5.5 10.5 5.5C11.3841 5.5 12.2319 5.85119 12.857 6.47631C13.4821 7.10143 13.8333 7.94928 13.8333 8.83333C13.8333 9.71739 13.4821 10.5652 12.857 11.1904C12.2319 11.8155 11.3841 12.1667 10.5 12.1667Z" stroke="#F9FAFB" stroke-linecap="round" stroke-linejoin="round"/>
</svg>
