<svg width="34" height="35" viewBox="0 0 34 35" fill="none" xmlns="http://www.w3.org/2000/svg">
<path d="M0 3.83333V34.5H11.25V31.625H7.5V28.75H11.25V25.875H3.75V23H11.25V20.125H7.5V17.25H11.25V14.375H3.75V11.5H11.25V3.83333H14.0625V11.5H16.875V7.66667H19.6875V11.5H22.5V3.83333H25.3125V11.5H28.125V7.66667H30.9375V11.5H33.75V0H3.75C2.75544 0 1.80161 0.403868 1.09835 1.12276C0.395088 1.84165 0 2.81667 0 3.83333ZM5.625 7.66667C5.12772 7.66667 4.65081 7.46473 4.29918 7.10529C3.94754 6.74584 3.75 6.25833 3.75 5.75C3.75 5.24167 3.94754 4.75416 4.29918 4.39471C4.65081 4.03527 5.12772 3.83333 5.625 3.83333C6.12228 3.83333 6.59919 4.03527 6.95082 4.39471C7.30246 4.75416 7.5 5.24167 7.5 5.75C7.5 6.25833 7.30246 6.74584 6.95082 7.10529C6.59919 7.46473 6.12228 7.66667 5.625 7.66667Z" fill="#CBD5E1"/>
</svg>
