<svg width="34" height="35" viewBox="0 0 34 35" fill="none" xmlns="http://www.w3.org/2000/svg">
<path fill-rule="evenodd" clip-rule="evenodd" d="M12.3745 14.7536C13.0344 14.998 13.7359 15.1288 14.445 15.1418C15.0384 15.1772 15.6319 15.1772 16.2254 15.1418C17.4517 15.0555 18.3557 14.7967 20.0272 14.7249C20.3648 14.7249 21.3471 14.8255 21.9764 14.7249C22.308 14.7002 22.6285 14.6016 22.9111 14.4374C23.4499 14.0636 23.8443 13.5317 24.0316 12.928C24.3078 11.8384 24.3953 10.7142 24.2925 9.59584C24.2925 8.77646 24.4138 7.2412 24.2925 5.99056C24.2584 5.36277 24.0915 4.74758 23.8014 4.18074C23.4101 3.5551 22.9524 2.96802 22.4353 2.42842C21.7086 1.65032 20.9299 0.916191 20.1039 0.230464C19.9187 0.075393 19.6769 -0.00696725 19.4286 0.000462276C18.9221 0.000462276 17.7111 0.216089 17.5116 0.230464L13.0498 0.791093C12.9388 0.804191 12.834 0.846149 12.7472 0.91221C12.6604 0.97827 12.5951 1.06579 12.5586 1.16485C12.5208 1.06764 12.4518 0.983743 12.3612 0.924578C12.2705 0.865412 12.1626 0.833859 12.0522 0.834218C11.9836 0.836078 11.9161 0.850571 11.8536 0.876868C11.791 0.903164 11.7346 0.94075 11.6876 0.987475C11.6405 1.0342 11.6038 1.08915 11.5794 1.14918C11.5551 1.20922 11.5436 1.27316 11.5457 1.33735L11.3922 9.86897C11.3922 10.5015 11.1773 11.5509 11.1619 12.4407C11.1374 12.9007 11.1988 13.3636 11.3461 13.8063C11.4391 14.0218 11.5784 14.217 11.7553 14.38C11.9322 14.5429 12.1429 14.6701 12.3745 14.7536ZM21.209 3.40592C21.6311 3.8803 22.0025 4.39637 22.3141 4.94262C22.4277 5.20281 22.4937 5.48025 22.5121 5.762L22.42 5.74763C21.5531 5.5904 20.6773 5.48001 19.797 5.417C19.4743 5.37282 19.1625 5.27548 18.8761 5.1295C18.8761 4.88512 18.9988 4.49699 18.9988 4.22387V2.85823L18.9067 1.62341C19.1216 1.62341 19.3058 1.62341 19.3825 1.47966C20.0292 2.09108 20.638 2.73317 21.209 3.40592ZM13.1879 1.96841L17.5883 1.59466L17.3581 2.81654C17.3581 2.93154 17.1893 3.4203 17.0818 3.98093C17.0222 4.40464 16.9914 4.83149 16.9897 5.25887C16.9716 5.51053 17.0147 5.76275 17.1157 5.99656C17.2167 6.23037 17.3731 6.43966 17.573 6.60869C18.0687 6.86745 18.6182 7.01838 19.1846 7.05432C20.1975 7.05432 21.2551 6.82432 22.2512 6.88182C22.3461 6.90947 22.4478 6.90947 22.5428 6.88182C22.5428 7.97433 22.374 9.1229 22.374 9.75396C22.4323 10.4296 22.4323 11.1052 22.374 11.7809C22.067 14.0349 20.9772 12.915 19.9965 12.9582C18.2943 13.0588 17.3734 13.3176 16.1164 13.4326C15.6053 13.4625 15.0927 13.4625 14.5816 13.4326C14.1861 13.4395 13.7908 13.4106 13.4013 13.3463C13.2631 13.3463 13.1097 13.1451 13.0329 13.2169C12.9332 12.8705 12.8917 12.5116 12.9101 12.1532C12.9101 11.3338 13.0176 10.4569 12.9869 9.91209L12.6032 1.60904C12.6581 1.70645 12.7432 1.78604 12.8473 1.83734C12.9513 1.88865 13.0696 1.90929 13.1864 1.89654L13.1879 1.96841ZM31.9283 27.5086C31.72 27.3 31.4763 27.1252 31.207 26.9911C30.9932 26.9087 30.7731 26.8414 30.5485 26.7899C31.0859 26.3264 31.4689 25.7273 31.6513 25.0647C31.8337 24.4022 31.8079 23.7044 31.5769 23.0552C31.309 22.2517 30.7902 21.5417 30.0874 21.0169C29.3845 20.4922 28.53 20.1767 27.6338 20.1112C26.8182 20.0562 26.0098 20.2867 25.3654 20.7581C24.5314 21.4133 23.9849 22.3336 23.8305 23.3427C23.6894 23.9119 23.7209 24.5067 23.9216 25.0599C24.1223 25.6132 24.4842 26.1028 24.9663 26.4736C24.5672 26.5628 24.1835 26.6921 23.8152 26.8618C23.5647 26.9972 23.3371 27.1667 23.1398 27.3649C22.9439 27.5711 22.7739 27.7978 22.6333 28.0405C22.321 28.5934 22.1285 29.1987 22.067 29.8216C21.7936 29.5028 21.4732 29.2221 21.1154 28.9878C20.7443 28.7752 20.3546 28.5924 19.9504 28.4416C20.4522 27.9093 20.7935 27.2614 20.9391 26.5646C21.0848 25.8678 21.0296 25.1472 20.7793 24.4769C20.382 23.3989 19.5558 22.506 18.473 21.9844C17.3902 21.4627 16.1342 21.3525 14.9668 21.6767C14.2245 21.8944 13.5532 22.2848 13.0156 22.8112C12.4779 23.3377 12.0915 23.9832 11.8922 24.6874C11.693 25.3917 11.6875 26.1317 11.8762 26.8384C12.0649 27.5452 12.4418 28.1956 12.9715 28.7291C12.7566 28.8153 12.5264 28.8872 12.3284 28.9878C11.957 29.2073 11.6142 29.4613 11.3001 29.7497C11.3001 29.836 11.1773 29.9366 11.1006 30.0085C11.0264 29.368 10.8177 28.7475 10.4866 28.1828C10.335 27.9323 10.1441 27.7046 9.92026 27.5072C9.71676 27.31 9.48418 27.141 9.22958 27.0055C9.00378 26.9258 8.77315 26.8586 8.5389 26.8043C9.07922 26.3395 9.46397 25.738 9.6465 25.0725C9.82903 24.4071 9.8015 23.7063 9.56725 23.0552C9.29095 22.2738 8.7762 21.5852 8.08661 21.0748C7.39702 20.5643 6.56284 20.2543 5.68717 20.1831C4.87569 20.1271 4.07126 20.3579 3.43249 20.83C2.59453 21.4818 2.04752 22.4039 1.89919 23.4146C1.75436 23.9837 1.78413 24.5795 1.98507 25.1335C2.18602 25.6874 2.54996 26.1769 3.03497 26.5455C2.63121 26.6382 2.23991 26.7732 1.86849 26.948C1.61984 27.0937 1.39473 27.2662 1.19316 27.4655C0.997177 27.6718 0.827224 27.8985 0.686662 28.1412C0.349587 28.6805 0.126069 29.2753 0.0282156 29.8935C0.00446712 29.9624 -0.00442607 30.035 0.00205291 30.1071C0.00853189 30.1792 0.0302538 30.2495 0.0659562 30.3137C0.101659 30.3779 0.150629 30.4348 0.210022 30.4811C0.269415 30.5274 0.338046 30.5622 0.411926 30.5835C0.560555 30.6295 0.722518 30.6192 0.863101 30.5547C1.00368 30.4902 1.1117 30.3767 1.164 30.2385C1.3052 29.9903 1.47403 29.7603 1.67049 29.5485C1.86286 29.3511 2.06699 29.1642 2.2829 28.9878L2.85079 28.4272C3.22426 27.973 3.63355 27.547 4.07866 27.1493C4.17728 27.0995 4.25313 27.0177 4.292 26.9193H4.55292C4.69286 26.9232 4.82893 26.8759 4.93213 26.7873C5.03534 26.6986 5.09753 26.5758 5.10547 26.4449C5.09816 26.3289 5.04569 26.2195 4.95799 26.1374C4.8703 26.0552 4.75347 26.0061 4.62967 25.9993C3.3097 25.8411 3.09483 24.7069 3.38645 23.7021C3.67806 22.6973 4.41479 21.8765 5.50452 22.0059C6.01276 22.0379 6.50025 22.2069 6.90821 22.4926C7.31617 22.7782 7.62717 23.1684 7.80372 23.6159C8.02277 24.0593 8.07217 24.5599 7.9436 25.0335C7.81502 25.507 7.51632 25.9247 7.09769 26.2163C6.9037 26.3576 6.67806 26.4559 6.43771 26.5038C6.14097 26.5613 5.83963 26.5997 5.53369 26.6188C5.43711 26.6238 5.34324 26.6505 5.26012 26.6968C5.177 26.7432 5.10711 26.8077 5.05642 26.8848C5.00572 26.962 4.97575 27.0495 4.96906 27.1398C4.96236 27.2302 4.97915 27.3207 5.01798 27.4037C5.06631 27.5039 5.14578 27.5881 5.246 27.6452C5.34622 27.7024 5.46253 27.73 5.57973 27.7243C6.02182 27.7451 6.46498 27.7162 6.89969 27.638H7.11457C7.51363 27.9687 7.83595 28.328 8.17208 28.6443L8.78601 29.2178C9.01112 29.3932 9.226 29.5801 9.43064 29.7785C9.6312 29.9951 9.80515 30.2299 9.95249 30.4829C9.99079 30.5875 10.063 30.6783 10.159 30.7427C10.255 30.8072 10.3701 30.8419 10.4882 30.8422C10.0025 31.6359 9.67977 32.5076 9.53655 33.4125C9.5006 33.4855 9.48182 33.5649 9.4815 33.6453C9.48118 33.7256 9.49933 33.8052 9.5347 33.8784C9.57007 33.9516 9.62185 34.0169 9.68652 34.0698C9.75119 34.1226 9.82724 34.1618 9.90951 34.1847C9.99178 34.2076 10.0783 34.2137 10.1633 34.2025C10.2483 34.1913 10.3298 34.1632 10.4021 34.1199C10.4745 34.0767 10.536 34.0194 10.5827 33.9519C10.6293 33.8844 10.6599 33.8083 10.6723 33.7288C11.155 32.7566 11.8438 31.8865 12.6968 31.1714L13.4182 30.5389C13.7886 30.2217 14.182 29.9294 14.5985 29.662C14.6496 29.6644 14.7008 29.6644 14.7519 29.662C15.5378 29.7914 16.342 29.7914 17.1294 29.662C17.1744 29.6764 17.2205 29.6764 17.2675 29.662C17.3443 29.7646 17.4555 29.8402 17.5835 29.8767C17.7115 29.9132 17.8488 29.9085 17.9736 29.8633C18.1987 29.7665 18.413 29.6515 18.6167 29.5183C19.072 29.8403 19.5069 30.1853 19.9213 30.5533C20.1669 30.7833 20.3802 31.0133 20.5797 31.2289C21.3454 32.071 21.9245 33.0473 22.2834 34.1011C22.3062 34.1719 22.3437 34.2379 22.3939 34.2951C22.444 34.3523 22.5058 34.3996 22.5755 34.4344C22.6453 34.4691 22.7217 34.4906 22.8004 34.4975C22.8791 34.5045 22.9585 34.4968 23.0339 34.4748C23.1835 34.4374 23.3124 34.3485 23.3949 34.2259C23.4774 34.1033 23.5075 33.956 23.479 33.8136C23.4081 32.8775 23.2016 31.9548 22.8651 31.0708C22.7726 30.8905 22.6648 30.7174 22.5428 30.5533C22.6809 30.5823 22.8255 30.5633 22.9498 30.4999C23.074 30.4364 23.1694 30.3328 23.2181 30.2083C23.3696 29.9639 23.5435 29.7339 23.74 29.5183C23.9088 29.317 24.139 29.1747 24.3385 28.9735C24.5365 28.7722 24.7207 28.6285 24.9049 28.4272C25.2784 27.9768 25.6877 27.5556 26.1328 27.1636C26.2378 27.1169 26.32 27.0348 26.363 26.9336H26.6224C26.7608 26.9336 26.8935 26.8821 26.9914 26.7905C27.0893 26.6988 27.1442 26.5745 27.1442 26.4449C27.1442 26.3153 27.0893 26.191 26.9914 26.0993C26.8935 26.0076 26.7608 25.9561 26.6224 25.9561C25.3178 25.798 25.0875 24.6638 25.3792 23.659C25.6708 22.6542 26.4229 21.8334 27.5126 21.9627C28.0187 21.9957 28.5037 22.1653 28.9091 22.451C29.3144 22.7367 29.6226 23.1264 29.7964 23.5727C30.0357 24.0133 30.1038 24.518 29.989 25.0004C29.8741 25.4828 29.5836 25.9127 29.1672 26.2163C28.9676 26.3543 28.7374 26.4521 28.4934 26.5038C28.2007 26.5613 27.904 26.5997 27.6031 26.6188C27.4474 26.6263 27.3008 26.6904 27.1948 26.7975C27.0887 26.9047 27.0315 27.0463 27.0353 27.1924C27.0351 27.2647 27.0508 27.3363 27.0812 27.4028C27.1117 27.4693 27.1563 27.5292 27.2123 27.579C27.2683 27.6288 27.3346 27.6674 27.4071 27.6923C27.4796 27.7173 27.5567 27.7282 27.6338 27.7243C28.083 27.7444 28.5281 27.7156 28.9692 27.638H29.184C29.5831 27.9687 29.9054 28.3137 30.2431 28.6299C30.5807 28.9462 30.6559 29.0037 30.8555 29.1891C31.055 29.376 31.3006 29.5341 31.5001 29.7497C31.6945 29.9654 31.8685 30.1954 32.022 30.4397C32.043 30.5101 32.079 30.5757 32.1276 30.6328C32.1763 30.6899 32.2367 30.7373 32.3052 30.7721C32.3738 30.8069 32.4491 30.8286 32.5267 30.8357C32.6043 30.8428 32.6827 30.8352 32.7571 30.8135C32.9068 30.7702 33.0325 30.6738 33.1071 30.5448C33.1817 30.4158 33.1993 30.2645 33.1562 30.1235C33.0829 29.4653 32.8633 28.8287 32.5116 28.2547C32.3615 27.9777 32.1646 27.7267 31.9283 27.5086ZM14.1549 27.996C13.8474 27.6297 13.6451 27.1958 13.5672 26.7356C13.4893 26.2754 13.5384 25.8042 13.7098 25.3668C13.8159 24.9456 14.0369 24.5575 14.3511 24.2403C14.6653 23.9231 15.062 23.6876 15.5025 23.5569C16.216 23.3181 17.0002 23.3444 17.6937 23.6305C18.3871 23.9166 18.9372 24.4407 19.2306 25.0951C20.9634 28.972 15.1679 29.0439 14.1549 27.996ZM2.34429 18.8606C2.57452 18.8606 2.65126 19.0618 3.69495 16.9358C3.83308 16.6626 3.94052 16.3608 4.04796 16.0876C4.75245 14.3655 4.98268 14.2792 4.62967 13.9486C3.93899 13.3736 2.46554 15.1705 2.45019 15.2136C2.11505 15.615 1.89381 16.0892 1.8071 16.5922C1.715 17.0235 1.63826 18.8031 2.34429 18.8606ZM33.4785 15.8016C33.3761 15.5706 33.242 15.3531 33.0795 15.1547C33.0795 15.1547 31.5446 13.3161 30.9 13.8911C30.5178 14.2217 30.7327 14.3367 31.4372 16.0316C31.56 16.3047 31.6674 16.6066 31.7902 16.8797C32.8492 19.0043 32.9106 18.8175 33.1562 18.8045C33.8622 18.8045 33.7701 16.9645 33.7087 16.5333C33.667 16.2809 33.5896 16.0348 33.4785 15.8016ZM7.69628 12.5269C7.84362 12.4637 7.98176 12.387 8.11068 12.2969C8.24646 12.2224 8.37045 12.1305 8.47904 12.0238C9.64552 11.0607 9.8604 10.9888 9.69157 10.5863C9.69157 10.4282 9.44599 9.89772 7.54279 10.5144C7.16957 10.6341 6.83263 10.8363 6.56049 11.1038C6.31492 11.3625 5.4109 12.5413 5.77926 12.8863C5.9174 13.0013 6.00795 13.2457 7.69628 12.5269ZM26.9892 12.0238C27.1059 12.1244 27.2286 12.2155 27.3576 12.2969C27.4937 12.387 27.6369 12.4637 27.7873 12.5269C29.491 13.2457 29.5831 13.0013 29.7059 12.8719C30.0742 12.4982 29.1533 11.3482 28.9231 11.0894C28.6397 10.828 28.2994 10.6269 27.9255 10.5C26.0391 9.88334 25.8396 10.4138 25.7782 10.5719C25.6247 10.9888 25.8381 11.0607 26.9892 12.0238Z" fill="#CBD5E1"/>
</svg>
