<svg width="31" height="31" viewBox="0 0 31 31" fill="none" xmlns="http://www.w3.org/2000/svg">
<path d="M13.3648 17.6341L21.5376 9.46146M29.8959 4.47626L22.9981 26.8962C22.3792 28.9064 22.0705 29.9116 21.5359 30.2438C21.3083 30.386 21.0499 30.4719 20.7824 30.4942C20.5149 30.5165 20.2459 30.4746 19.9978 30.372C19.4177 30.1308 18.9455 29.1915 18.0044 27.3094L13.6364 18.5701C13.5471 18.3676 13.438 18.1744 13.3109 17.9933C13.2231 17.879 13.1211 17.7764 13.0073 17.688C12.8316 17.566 12.6447 17.461 12.4491 17.3744L3.69111 12.9929C1.81066 12.0519 0.8696 11.5813 0.628431 11.0012C0.525558 10.7529 0.483518 10.4836 0.505813 10.2158C0.528109 9.94795 0.614094 9.68933 0.756604 9.46146C1.08884 8.92853 2.094 8.61822 4.1043 7.99929L26.5263 1.10163C28.1065 0.614245 28.8958 0.371393 29.4304 0.56871C29.6601 0.653038 29.8686 0.786317 30.0416 0.959301C30.2146 1.13228 30.3479 1.34083 30.4322 1.57047C30.6278 2.1034 30.385 2.89266 29.8993 4.4712L29.8959 4.47626Z" stroke="#F9FAFB" stroke-linecap="round" stroke-linejoin="round"/>
</svg>
