<svg xmlns="http://www.w3.org/2000/svg" fill="none" viewBox="0 0 100 100">
  <defs>
    <mask id="cpp-mask">
      <rect width="100%" height="100%" fill="white"/>
      <!-- The ++ symbols -->
      <path fill="black" d="M92.355 51.52H88.98v3.376h-3.376V51.52h-3.375v-3.375h3.375V44.77h3.376v3.375h3.375zm-12.316 0h-3.375v3.376h-3.376V51.52h-3.375v-3.375h3.375V44.77h3.376v3.375h3.375z"/>
      <!-- The C symbol -->
      <path fill="black" d="M63.154 57.06c-2.517 4.463-7.299 7.479-12.787 7.479-5.454 0-10.209-2.979-12.738-7.394a14.6 14.6 0 0 1-1.935-7.28c0-8.104 6.57-14.673 14.673-14.673 5.42 0 10.15 2.941 12.691 7.311l12.826-7.385c-5.098-8.8-14.615-14.72-25.516-14.72-16.275 0-29.468 13.193-29.468 29.467 0 5.34 1.42 10.346 3.903 14.665 5.084 8.846 14.63 14.803 25.565 14.803 10.955 0 20.514-5.981 25.592-14.853z"/>
    </mask>
  </defs>
  <g mask="url(#cpp-mask)">
    <path fill="#5C8DBC" d="M94.73 29.32c0-1.676-.359-3.158-1.084-4.43-.713-1.25-1.78-2.298-3.21-3.127C78.621 14.95 66.797 8.16 54.987 1.343c-3.183-1.839-6.27-1.772-9.43.093-4.702 2.773-28.243 16.26-35.258 20.323-2.889 1.672-4.295 4.232-4.295 7.559C6 43.016 6.005 56.714 6 70.413c0 1.64.344 3.093 1.037 4.345.713 1.289 1.795 2.366 3.26 3.213 7.014 4.063 30.559 17.55 35.26 20.323 3.16 1.865 6.248 1.932 9.432.093 11.81-6.818 23.635-13.609 35.45-20.42 1.464-.847 2.546-1.925 3.259-3.212.692-1.253 1.036-2.706 1.037-4.346 0 0 0-27.39-.005-41.088"/>
  </g>
</svg>