<svg width="36" height="36" viewBox="0 0 36 36" fill="none" xmlns="http://www.w3.org/2000/svg">
<path d="M1.44005 34.4911L13.1876 22.5025M13.1876 22.5025C12.9304 22.2402 12.7264 21.9287 12.5871 21.5859C12.4479 21.2431 12.3762 20.8756 12.3761 20.5045C12.376 20.1334 12.4475 19.7659 12.5866 19.423C12.7257 19.0801 12.9296 18.7685 13.1867 18.506C13.4438 18.2436 13.749 18.0353 14.0849 17.8932C14.4208 17.7511 14.7809 17.6779 15.1446 17.6779C15.5082 17.6778 15.8683 17.7508 16.2043 17.8927C16.5403 18.0347 16.8456 18.2427 17.1028 18.5051C17.6223 19.0349 17.9142 19.7537 17.9144 20.5032C17.9145 21.2526 17.6229 21.9715 17.1038 22.5016C16.5846 23.0317 15.8803 23.3296 15.1459 23.3298C14.4114 23.33 13.707 23.0324 13.1876 22.5025ZM28.1988 16.5082L33.4191 11.1789C34.1112 10.4724 34.5 9.51426 34.5 8.51522C34.5 7.51618 34.1112 6.55804 33.4191 5.85151L29.5057 1.85405C29.1628 1.50403 28.7558 1.22638 28.3078 1.03694C27.8597 0.847503 27.3796 0.75 26.8946 0.75C26.4097 0.75 25.9295 0.847503 25.4814 1.03694C25.0334 1.22638 24.6264 1.50403 24.2835 1.85405L19.0632 7.18336M27.9809 17.1714L24.4644 27.9374C24.4083 28.1099 24.3122 28.2661 24.1843 28.3927C24.0564 28.5193 23.9005 28.6125 23.7297 28.6645L2.17289 35.2032C1.97868 35.2621 1.77237 35.2655 1.57641 35.213C1.38045 35.1605 1.20235 35.0542 1.0615 34.9056C0.920642 34.757 0.822423 34.5718 0.777532 34.3702C0.732641 34.1686 0.742797 33.9582 0.806894 33.7621L7.80669 12.3356C7.85686 12.1818 7.93887 12.0407 8.04716 11.9221C8.15545 11.8034 8.28749 11.71 8.43431 11.648L18.3784 7.4697C18.5805 7.3845 18.8029 7.36228 19.0174 7.40587C19.2319 7.44945 19.429 7.55688 19.5838 7.7146L27.7133 16.0147C27.8587 16.1631 27.9608 16.3499 28.0081 16.5542C28.0554 16.7585 28.046 16.9722 27.9809 17.1714Z" stroke="#CBD5E1" stroke-width="1.5" stroke-linecap="round" stroke-linejoin="round"/>
</svg>
