<svg width="55" height="45" viewBox="0 0 55 45" fill="none" xmlns="http://www.w3.org/2000/svg">
<path d="M54.1062 18.4893C52.7578 17.5484 49.2146 17.1466 46.6386 17.8658C46.4997 15.2061 45.1768 12.9647 42.7565 11.0091L41.8605 10.3857L41.2634 11.3205C40.0896 13.1675 39.595 15.6282 39.7703 17.865C39.9085 19.2432 40.371 20.7924 41.2634 21.9165C37.9107 23.9324 34.8205 23.4748 21.1348 23.4748H0.00474375C-0.057074 26.6781 0.43965 32.8404 4.21999 37.8568C4.63744 38.4109 5.09562 38.947 5.59234 39.4634C8.66577 42.6539 13.3094 44.9932 20.2533 45C30.8467 45.0098 39.923 39.0744 45.4437 24.7225C47.2604 24.7534 52.056 25.0602 54.4029 20.3589C54.4604 20.2798 55 19.112 55 19.112L54.1055 18.4885L54.1062 18.4893ZM13.7945 15.5596H7.85269V21.719H13.7945V15.5596ZM21.4708 15.5596H15.529V21.719H21.4708V15.5596ZM29.1471 15.5596H23.2053V21.719H29.1471V15.5596ZM36.8234 15.5596H30.8816V21.719H36.8234V15.5596ZM6.11816 15.5596H0.176379V21.719H6.11816V15.5596ZM13.7945 7.7802H7.85269V13.9395H13.7945V7.7802ZM21.4708 7.7802H15.529V13.9395H21.4708V7.7802ZM29.1471 7.7802H23.2053V13.9395H29.1471V7.7802ZM29.1471 0H23.2053V6.15932H29.1471V0Z" fill="#CBD5E1"/>
</svg>
