<svg width="53" height="53" viewBox="0 0 53 53" fill="none" xmlns="http://www.w3.org/2000/svg">
<g filter="url(#filter0_d_106_996)">
<path d="M48.1522 20.4957L28.5086 0.848603C27.3781 -0.282867 25.5433 -0.282867 24.411 0.848603L20.3328 4.92888L25.507 10.1043C26.7098 9.69824 28.0884 9.97059 29.0467 10.9292C29.5034 11.3864 29.8223 11.963 29.9668 12.5929C30.1113 13.2229 30.0757 13.8808 29.8639 14.4915L34.8507 19.4801C36.0571 19.0641 37.4495 19.3328 38.4125 20.2982C39.7597 21.6446 39.7597 23.8274 38.4125 25.1745C38.0924 25.4949 37.7122 25.749 37.2939 25.9224C36.8755 26.0958 36.4271 26.1851 35.9742 26.1851C35.5213 26.1851 35.0729 26.0958 34.6545 25.9224C34.2362 25.749 33.8561 25.4949 33.5359 25.1745C33.0549 24.6931 32.727 24.0801 32.5935 23.4128C32.46 22.7454 32.5269 22.0534 32.7857 21.424L28.1354 16.7722L28.1347 29.0142C28.4721 29.1803 28.7801 29.4004 29.0467 29.6658C30.3935 31.0122 30.3935 33.1942 29.0467 34.5435C27.6999 35.89 25.5169 35.89 24.1715 34.5435C22.8251 33.1946 22.7146 31.0126 24.0607 29.6658C24.3936 29.3332 24.7218 29.0819 25.0782 28.9136V16.5584C24.7218 16.3901 24.3939 16.1406 24.0603 15.8058C23.0407 14.7863 22.85 13.2891 23.3732 12.0357L18.3006 6.93337L4.84512 20.4048C3.71355 21.5373 3.72068 23.3725 4.85225 24.5043L24.4991 44.1514C25.6299 45.2829 27.4661 45.2829 28.5987 44.1514L48.1507 24.5956C49.2823 23.4634 49.2834 21.6272 48.1522 20.4957Z" fill="url(#paint0_linear_106_996)"/>
</g>
<defs>
<filter id="filter0_d_106_996" x="0" y="0" width="53" height="53" filterUnits="userSpaceOnUse" color-interpolation-filters="sRGB">
<feFlood flood-opacity="0" result="BackgroundImageFix"/>
<feColorMatrix in="SourceAlpha" type="matrix" values="0 0 0 0 0 0 0 0 0 0 0 0 0 0 0 0 0 0 127 0" result="hardAlpha"/>
<feOffset dy="4"/>
<feGaussianBlur stdDeviation="2"/>
<feComposite in2="hardAlpha" operator="out"/>
<feColorMatrix type="matrix" values="0 0 0 0 0 0 0 0 0 0 0 0 0 0 0 0 0 0 0.5 0"/>
<feBlend mode="normal" in2="BackgroundImageFix" result="effect1_dropShadow_106_996"/>
<feBlend mode="normal" in="SourceGraphic" in2="effect1_dropShadow_106_996" result="shape"/>
</filter>
<linearGradient id="paint0_linear_106_996" x1="4" y1="-39.9996" x2="88.9997" y2="44.9996" gradientUnits="userSpaceOnUse">
<stop offset="1" stop-color="#CBD5E1"/>
</linearGradient>
</defs>
</svg>
