<svg width="38" height="38" viewBox="0 0 38 38" fill="none" xmlns="http://www.w3.org/2000/svg">
<path fill-rule="evenodd" clip-rule="evenodd" d="M19 0C29.4937 0 38 8.72086 38 19.4805C38 28.0856 32.5622 35.3855 25.0173 37.9638C24.054 38.1557 23.712 37.5473 23.712 37.0286C23.712 36.3864 23.7348 34.2889 23.7348 31.6821C23.7348 29.8657 23.1268 28.6802 22.4447 28.076C26.676 27.5934 31.122 25.9459 31.122 18.4637C31.122 16.3358 30.3848 14.5992 29.165 13.235C29.3626 12.7429 30.0143 10.7615 28.9788 8.0787C28.9788 8.0787 27.3866 7.55671 23.7595 10.0761C22.2414 9.64481 20.615 9.4278 19 9.4202C17.385 9.4278 15.7605 9.64481 14.2443 10.0761C10.6134 7.55671 9.0174 8.0787 9.0174 8.0787C7.9857 10.7615 8.6374 12.7429 8.8331 13.235C7.619 14.5992 6.87611 16.3358 6.87611 18.4637C6.87611 25.9269 11.3126 27.5997 15.5325 28.0918C14.9891 28.5782 14.497 29.4362 14.326 30.6959C13.243 31.1937 10.4918 32.0552 8.79699 29.0779C8.79699 29.0779 7.7919 27.2062 5.8843 27.0694C5.8843 27.0694 4.0318 27.0448 5.7551 28.2532C5.7551 28.2532 6.9996 28.8517 7.8641 31.1032C7.8641 31.1032 8.97941 34.5801 14.2652 33.4021C14.2747 35.0304 14.2918 36.565 14.2918 37.0286C14.2918 37.5435 13.9422 38.1461 12.9941 37.9656C5.44349 35.3911 0 28.0875 0 19.4805C0 8.72086 8.5082 0 19 0Z" fill="#F9FAFB"/>
</svg>
