<svg width="31" height="31" viewBox="0 0 31 31" fill="none" xmlns="http://www.w3.org/2000/svg">
<path d="M30.5 24.9929V14.8084C30.5 13.8281 30.5 13.338 30.3781 12.8809C30.2702 12.4769 30.0926 12.0938 29.8531 11.7483C29.5813 11.3573 29.2062 11.0324 28.4506 10.388L19.4506 2.67806C18.0519 1.47935 17.3506 0.879073 16.5631 0.651446C15.8694 0.449518 15.1306 0.449518 14.435 0.651446C13.6475 0.879073 12.95 1.47751 11.5513 2.67439L2.54937 10.388C1.79562 11.0342 1.41875 11.3573 1.14875 11.7464C0.908375 12.0924 0.730183 12.4761 0.621875 12.8809C0.5 13.3362 0.5 13.8281 0.5 14.8084V24.9929C0.5 26.7038 0.5 27.5592 0.785 28.2329C0.973246 28.6785 1.2493 29.0834 1.5974 29.4245C1.94549 29.7656 2.35881 30.0363 2.81375 30.221C3.50375 30.5 4.3775 30.5 6.125 30.5C7.8725 30.5 8.74625 30.5 9.43625 30.221C9.89119 30.0363 10.3045 29.7656 10.6526 29.4245C11.0007 29.0834 11.2768 28.6785 11.465 28.2329C11.75 27.5592 11.75 26.7038 11.75 24.9929V23.1572C11.75 22.1835 12.1451 21.2496 12.8484 20.5611C13.5516 19.8726 14.5054 19.4858 15.5 19.4858C16.4946 19.4858 17.4484 19.8726 18.1516 20.5611C18.8549 21.2496 19.25 22.1835 19.25 23.1572V24.9929C19.25 26.7038 19.25 27.5592 19.535 28.2329C19.7232 28.6785 19.9993 29.0834 20.3474 29.4245C20.6955 29.7656 21.1088 30.0363 21.5638 30.221C22.2538 30.5 23.1275 30.5 24.875 30.5C26.6225 30.5 27.4963 30.5 28.1863 30.221C28.6412 30.0363 29.0545 29.7656 29.4026 29.4245C29.7507 29.0834 30.0268 28.6785 30.215 28.2329C30.5 27.5592 30.5 26.7038 30.5 24.9929Z" stroke="#F9FAFB" stroke-linecap="round" stroke-linejoin="round"/>
</svg>
