<svg width="45" height="45" viewBox="0 0 45 45" fill="none" xmlns="http://www.w3.org/2000/svg">
<path d="M0 0H45V45H0V0Z" fill="#CBD5E1"/>
<path d="M41.3172 34.2674C40.9876 32.2144 39.6489 30.4901 35.6836 28.8822C34.3061 28.2492 32.7704 27.7959 32.3128 26.752C32.1504 26.1445 32.1288 25.8023 32.2316 25.4345C32.5267 24.2411 33.9513 23.869 35.0804 24.2112C35.8076 24.455 36.496 25.0154 36.9112 25.9094C38.853 24.652 38.8491 24.6602 40.205 23.7961C39.7086 23.0264 39.4437 22.6713 39.1187 22.342C37.9508 21.0375 36.3594 20.3657 33.8143 20.4171L32.4886 20.5885C31.2182 20.9095 30.0075 21.5763 29.2976 22.4703C27.1674 24.8874 27.7749 29.1176 30.367 30.8585C32.9207 32.7752 36.6721 33.2112 37.1513 35.0036C37.6175 37.1977 35.5387 37.9081 33.4725 37.6557C31.9498 37.339 31.1029 36.5651 30.1873 35.1578C28.5021 36.133 28.5021 36.133 26.7694 37.1294C27.1803 38.0278 27.612 38.4343 28.3008 39.2126C31.5605 42.519 39.7176 42.3565 41.1806 37.352C41.2399 37.1801 41.6339 36.0341 41.3172 34.2674ZM24.4634 20.682H20.2544L20.2371 31.5638C20.2371 33.8781 20.3568 35.9996 19.9805 36.6499C19.3647 37.9289 17.769 37.7704 17.0418 37.5223C16.3016 37.1586 15.9253 36.6413 15.4892 35.9101C15.3695 35.7002 15.2797 35.5377 15.2495 35.5251L11.8273 37.6208C12.3964 38.7888 13.2346 39.8025 14.3084 40.461C15.9123 41.4237 18.0681 41.7188 20.3227 41.2011C21.79 40.7737 23.0561 39.8884 23.719 38.5407C24.6773 36.7739 24.4717 34.6355 24.4631 32.2702C24.4846 28.4113 24.4634 24.5531 24.4634 20.682Z" fill="#323330"/>
</svg>
