<svg width="45" height="45" viewBox="0 0 45 45" fill="none" xmlns="http://www.w3.org/2000/svg">
<path fill-rule="evenodd" clip-rule="evenodd" d="M41.4496 34.8057C39.0017 34.7359 37.1027 34.993 35.5111 35.6791C35.0528 35.8677 34.3173 35.8677 34.2569 36.4588C34.5019 36.7068 34.5313 37.1127 34.7461 37.4565C35.1131 38.0804 35.7567 38.9209 36.3378 39.3569L38.2965 40.7912C39.4902 41.5388 40.837 41.9755 41.9998 42.7237C42.6736 43.1604 43.3466 43.7214 44.0203 44.1895C44.3633 44.439 44.5712 44.8449 45 45V44.9057C44.7859 44.6262 44.7242 44.221 44.5108 43.908L43.5915 43.0046C42.7044 41.7889 41.6019 40.7283 40.4082 39.8564C39.4285 39.1703 37.2866 38.2355 36.8887 37.0827L36.8283 37.0128C37.5006 36.943 38.2965 36.7005 38.94 36.5133C39.9814 36.2338 40.9296 36.2953 41.9998 36.0151L43.4701 35.5785V35.299C42.9192 34.738 42.5213 33.9897 41.9402 33.4601C40.3794 32.0886 38.6642 30.7479 36.8887 29.6258C35.9398 29.0026 34.7152 28.5967 33.7053 28.0678C33.3369 27.8806 32.7256 27.7869 32.5116 27.4753C31.9593 26.7906 31.654 25.8859 31.2561 25.0747L28.7465 19.651C28.1956 18.4353 27.858 17.2196 27.1857 16.0975C24.0325 10.7981 20.6036 7.58776 15.3387 4.43887C14.2067 3.78421 12.86 3.50265 11.4282 3.1603L9.13259 3.03454C8.64206 2.81656 8.1529 2.22409 7.72411 1.94322C5.97945 0.821163 1.47956 -1.6102 0.193192 1.59389C-0.633514 3.62002 1.41781 5.61472 2.11417 6.64386C2.63558 7.36069 3.30792 8.17115 3.67633 8.9816C3.88215 9.51119 3.95076 10.0729 4.1655 10.6339C4.65466 12.0054 5.11433 13.5334 5.75717 14.812C6.1002 15.4666 6.46038 16.1534 6.88917 16.7452C7.1341 17.0945 7.56288 17.244 7.65413 17.8051C7.22534 18.429 7.19584 19.3631 6.95092 20.1435C5.84841 23.6662 6.2772 28.0301 7.838 30.6235C8.32853 31.4025 9.48455 33.1178 11.0529 32.4624C12.4305 31.9014 12.1232 30.1247 12.5211 28.5659C12.6137 28.1922 12.5519 27.9427 12.7351 27.6926V27.7625L13.9906 30.3496C14.9394 31.8769 16.5929 33.4671 17.9698 34.5277C18.7039 35.0887 19.2857 36.0557 20.2036 36.398V36.3037H20.1432C19.9594 36.0242 19.6836 35.8985 19.4386 35.6805C18.8877 35.1194 18.2758 34.4334 17.847 33.8101C16.562 32.0649 15.43 30.1317 14.4194 28.137C13.9289 27.1707 13.5001 26.1108 13.1035 25.1446C12.9183 24.7701 12.9183 24.2084 12.613 24.0225C12.1533 24.7072 11.481 25.3011 11.1428 26.1423C10.561 27.4823 10.5006 29.1347 10.2866 30.8492C10.1631 30.8806 10.218 30.8492 10.1631 30.9191C9.18474 30.6703 8.8472 29.6405 8.48015 28.7686C7.5622 26.5552 7.40852 23.0018 8.20435 20.4453C8.4184 19.7907 9.33773 17.7331 8.97069 17.1099C8.78545 16.5174 8.17485 16.1751 7.83731 15.707C7.43939 15.1145 7.01197 14.3669 6.73618 13.7123C6.00209 11.9656 5.63505 10.0338 4.83853 8.28782C4.47011 7.47737 3.82796 6.63547 3.30724 5.8879C2.72545 5.046 2.08398 4.45354 1.62432 3.45654C1.47133 3.1072 1.25727 2.55246 1.5022 2.17798C1.56257 1.92855 1.68607 1.82864 1.92962 1.77275C2.32753 1.42341 3.46091 1.86637 3.85883 2.05222C4.99083 2.52032 5.93966 2.95629 6.88848 3.61024C7.31727 3.92185 7.77694 4.51432 8.32785 4.67082H8.97137C9.95107 4.88881 11.0522 4.74069 11.9695 5.02016C13.592 5.55114 15.0609 6.32946 16.3781 7.17205C20.3875 9.75922 23.6943 13.4377 25.9281 17.8337C26.2952 18.5506 26.4482 19.2052 26.7857 19.9535C27.4292 21.4815 28.2251 23.0395 28.8665 24.5367C29.5101 26.0018 30.122 27.4991 31.04 28.7148C31.4996 29.3694 33.3355 29.7118 34.1616 30.0548C34.7742 30.3343 35.7224 30.5858 36.2746 30.9281C37.3147 31.5828 38.3555 32.3311 39.3345 33.0479C39.8236 33.421 41.3549 34.2007 41.4462 34.8225L41.4496 34.8057ZM10.2337 7.71701C9.81082 7.7132 9.38922 7.76558 8.97961 7.87282V7.94268H9.03998C9.2849 8.44153 9.7137 8.78457 10.0197 9.22124L10.7243 10.7178L10.7846 10.6479C11.2134 10.3363 11.4282 9.83747 11.4282 9.08989C11.2443 8.87191 11.2141 8.65322 11.0611 8.43524C10.8773 8.12364 10.4793 7.96714 10.2337 7.71841V7.71701Z" fill="#CBD5E1"/>
</svg>
