<svg width="31" height="31" viewBox="0 0 31 31" fill="none" xmlns="http://www.w3.org/2000/svg">
<path d="M8.83333 8H5.83333C3.96667 8 3.03333 8 2.32 8.40875C1.69282 8.76827 1.18291 9.34192 0.863333 10.0475C0.5 10.85 0.5 11.9 0.5 14V24.5C0.5 26.6 0.5 27.65 0.863333 28.4525C1.18291 29.1581 1.69282 29.7317 2.32 30.0912C3.03167 30.5 3.965 30.5 5.82833 30.5H25.1717C27.035 30.5 27.9667 30.5 28.6783 30.0912C29.3067 29.7312 29.8167 29.1575 30.1367 28.4525C30.5 27.65 30.5 26.6038 30.5 24.5075V13.9944C30.5 11.8981 30.5 10.8481 30.1367 10.0475C29.8167 9.34164 29.3061 8.76795 28.6783 8.40875C27.9667 8 27.0333 8 25.1667 8H22.1667M8.83333 8H22.1667M8.83333 8C8.83333 6.01088 9.53571 4.10322 10.786 2.6967C12.0362 1.29018 13.7319 0.5 15.5 0.5C17.2681 0.5 18.9638 1.29018 20.214 2.6967C21.4643 4.10322 22.1667 6.01088 22.1667 8" stroke="#F9FAFB" stroke-linecap="round" stroke-linejoin="round"/>
</svg>
