<svg width="53" height="63" viewBox="0 0 53 63" fill="none" xmlns="http://www.w3.org/2000/svg">
<g filter="url(#filter0_d_106_994)">
<path d="M26.5 24.2288C28.7704 24.2288 30.611 22.3845 30.611 20.1095C30.611 17.8344 28.7704 15.9901 26.5 15.9901C24.2296 15.9901 22.389 17.8344 22.389 20.1095C22.389 22.3845 24.2296 24.2288 26.5 24.2288Z" fill="url(#paint0_linear_106_994)"/>
<path d="M26.5 35.258C29.7269 38.4029 32.9096 40.2633 35.4735 40.2633C36.3134 40.2633 37.109 40.0861 37.7721 39.6874C40.0707 38.3586 40.9106 35.0366 40.1149 30.2971C39.9823 29.4555 39.8055 28.6139 39.5845 27.7281C40.4686 27.4623 41.2642 27.1965 42.0599 26.9308C46.5246 25.2033 49 22.8114 49 20.1981C49 17.5404 46.5246 15.1486 42.0599 13.4654C41.2642 13.1553 40.4686 12.8896 39.5845 12.6681C39.8055 11.7822 39.9823 10.9406 40.1149 10.099C40.8664 5.27099 40.0265 1.90464 37.7279 0.575822C37.0648 0.177176 36.2692 0 35.4293 0C32.9096 0 29.6827 1.86035 26.4558 5.00522C23.2731 1.86035 20.0904 0 17.5265 0C16.6866 0 15.891 0.177176 15.2279 0.575822C12.9293 1.90464 12.0894 5.22669 12.8851 9.96615C13.0177 10.8077 13.1945 11.6493 13.4155 12.5352C12.5314 12.801 11.7358 13.0667 10.9401 13.3325C6.47544 15.06 4 17.4518 4 20.0652C4 22.7228 6.47544 25.1147 10.9401 26.7979C11.7358 27.1079 12.5314 27.3737 13.4155 27.5952C13.1945 28.4811 13.0177 29.3226 12.8851 30.1642C12.1336 34.9037 12.9735 38.27 15.2279 39.5546C15.891 39.9532 16.6866 40.1304 17.5265 40.1304C20.0904 40.219 23.2731 38.3586 26.5 35.258ZM24.0246 29.2783C24.8202 29.3226 25.6601 29.3226 26.5 29.3226C27.3399 29.3226 28.1798 29.3226 28.9754 29.2783C28.1798 30.3414 27.3399 31.3159 26.5 32.246C25.6601 31.3159 24.8202 30.3414 24.0246 29.2783ZM18.5432 24.7161C18.9853 25.4691 19.3831 26.1778 19.8694 26.8865C18.499 26.7093 17.2171 26.4878 15.9794 26.2221C16.3772 25.0261 16.8193 23.7859 17.3497 22.5457C17.7033 23.2544 18.1012 24.0074 18.5432 24.7161ZM15.9794 14.0412C17.2171 13.7754 18.499 13.554 19.8694 13.3768C19.4273 14.0855 18.9853 14.7942 18.5432 15.5472C18.1012 16.3002 17.7033 17.0089 17.3497 17.7619C16.775 16.4774 16.333 15.2371 15.9794 14.0412ZM18.4106 20.1095C18.9853 18.9135 19.6041 17.7176 20.3114 16.5217C20.9745 15.37 21.7259 14.2184 22.4774 13.0667C23.8035 12.9781 25.1297 12.9339 26.5 12.9339C27.9145 12.9339 29.2407 12.9781 30.5226 13.0667C31.3183 14.2184 32.0255 15.37 32.6886 16.5217C33.3959 17.7176 34.0147 18.9135 34.5894 20.1095C34.0147 21.3054 33.3959 22.5014 32.6886 23.6973C32.0255 24.8489 31.2741 26.0006 30.5226 27.1522C29.1965 27.2408 27.8703 27.2851 26.5 27.2851C25.0855 27.2851 23.7593 27.2408 22.4774 27.1522C21.6817 26.0006 20.9745 24.8489 20.3114 23.6973C19.6041 22.5014 18.9853 21.3054 18.4106 20.1095ZM35.6945 17.7176L34.501 15.5029C34.0589 14.7499 33.6611 14.0412 33.1749 13.3325C34.5452 13.5097 35.8271 13.7311 37.0648 13.9969C36.667 15.2371 36.225 16.4774 35.6945 17.7176ZM35.6945 22.5014C36.225 23.7416 36.667 24.9818 37.0648 26.1778C35.8271 26.4435 34.5452 26.665 33.1749 26.8422C33.6169 26.1335 34.0589 25.4248 34.501 24.6718C34.8988 24.0074 35.2967 23.2544 35.6945 22.5014ZM36.7112 37.8714C36.3576 38.0929 35.9155 38.1814 35.4293 38.1814C33.2633 38.1814 30.5668 36.4097 27.9145 33.752C29.1965 32.3789 30.4342 30.8286 31.6719 29.1012C33.7495 28.924 35.7387 28.6139 37.5953 28.171C37.8163 28.9683 37.9489 29.7656 38.0815 30.5629C38.7004 34.3279 38.2141 37.0298 36.7112 37.8714ZM39.0098 14.5284C43.9607 15.9458 46.9224 18.1163 46.9224 20.1095C46.9224 21.837 44.889 23.5644 41.3084 24.9375C40.6012 25.2033 39.8055 25.4691 39.0098 25.6905C38.4352 23.8745 37.7279 22.0141 36.8438 20.1095C37.7279 18.2048 38.4794 16.3445 39.0098 14.5284ZM35.4735 2.03752C35.9597 2.03752 36.3576 2.12611 36.7554 2.34758C38.2141 3.18917 38.7446 5.84681 38.1257 9.6561C37.9931 10.4091 37.8163 11.2064 37.6395 12.048C35.7829 11.6493 33.7937 11.3393 31.7161 11.1178C30.5226 9.39033 29.2407 7.84004 27.9587 6.46693C30.611 3.85358 33.3075 2.03752 35.4735 2.03752ZM28.9754 10.9406C28.1798 10.8963 27.3399 10.8963 26.5 10.8963C25.6601 10.8963 24.8202 10.8963 24.0246 10.9406C24.8202 9.87757 25.6601 8.9031 26.5 7.97292C27.3399 8.9031 28.1798 9.92186 28.9754 10.9406ZM16.2888 2.34758C16.6424 2.12611 17.0845 2.03752 17.5707 2.03752C19.7367 2.03752 22.4332 3.80929 25.0855 6.46693C23.8035 7.84004 22.5658 9.39033 21.3281 11.1178C19.2505 11.295 17.2613 11.605 15.4047 12.048C15.1837 11.2507 15.0511 10.4534 14.9185 9.6561C14.2996 5.8911 14.7859 3.23346 16.2888 2.34758ZM13.9902 25.6905C9.03929 24.2731 6.0776 22.1027 6.0776 20.1095C6.0776 18.382 8.111 16.6546 11.6916 15.2814C12.3988 15.0157 13.1945 14.7499 13.9902 14.5284C14.5648 16.3445 15.2721 18.2048 16.1562 20.1095C15.2721 22.0141 14.5206 23.9188 13.9902 25.6905ZM14.9185 30.5629C15.0511 29.8099 15.2279 29.0126 15.4047 28.171C17.2613 28.5696 19.2505 28.8797 21.3281 29.1012C22.5216 30.8286 23.8035 32.3789 25.0855 33.752C22.4332 36.3654 19.7367 38.1814 17.5707 38.1814C17.0845 38.1814 16.6866 38.0929 16.2888 37.8714C14.7859 37.0298 14.2996 34.3279 14.9185 30.5629ZM13.0619 48.812C14.0344 47.6161 14.0786 46.2872 13.5481 44.9584C13.0177 43.6296 11.9126 43.0095 10.5422 42.9652C8.90668 42.9209 7.22692 42.9652 5.59136 42.9652H5.28193V54.4373H6.60805V50.0965H8.68566C8.95088 50.0965 9.17191 50.1851 9.30452 50.4066L11.9568 54.5259C12.001 54.6145 12.1336 54.7474 12.222 54.7474H13.946C12.8851 53.1085 11.8684 51.5582 10.8075 49.9637C11.7358 49.8308 12.5314 49.5207 13.0619 48.812ZM6.60805 48.7234V44.3383H7.0943C8.111 44.3383 9.17191 44.294 10.1886 44.3826C11.3821 44.4269 12.222 45.3571 12.222 46.553C12.222 47.749 11.2495 48.6791 10.056 48.7234C8.99509 48.7677 7.93418 48.7234 6.60805 48.7234ZM23.7151 49.2992C23.0079 46.1987 20.1788 45.4014 18.0128 46.3758C16.333 47.1288 15.5815 48.5905 15.5373 50.4066C15.4931 51.7797 15.891 53.0199 16.9519 53.9501C18.1454 55.0132 19.6041 55.1461 21.1071 54.8803C21.947 54.7031 22.6984 54.3045 23.2731 53.6844C23.0521 53.3743 22.831 53.0642 22.61 52.7985C21.3723 53.8615 20.002 54.2159 18.499 53.5072C17.5265 53.0199 17.0403 51.824 16.9519 50.9381H23.8035V50.3623C23.8477 49.9637 23.8035 49.6093 23.7151 49.2992ZM17.0403 50.0079C16.9077 48.6791 18.2338 47.2617 19.6925 47.2617C21.3723 47.2174 22.4332 48.2362 22.4774 50.0079H17.0403ZM30.611 46.1544C29.9479 46.0215 29.2407 45.9772 28.5776 46.0215C27.5167 46.1101 26.5884 46.5973 25.8369 47.3946C26.058 47.7047 26.2348 48.0147 26.5 48.3691C26.5884 48.2805 26.6768 48.1919 26.7652 48.1476C27.4725 47.4832 28.3124 47.1288 29.3291 47.2174C30.1248 47.2617 30.8762 47.5275 31.0972 48.3248C31.2741 48.9449 31.2299 49.6093 31.2741 50.2737C31.1415 50.2737 31.0973 50.2294 31.053 50.1851C29.9921 49.2992 28.7986 49.1221 27.5167 49.4321C26.3232 49.7422 25.5717 50.6724 25.4833 51.8683C25.3949 53.2414 26.0138 54.2602 27.2073 54.7474C27.9587 55.0575 28.7986 55.0575 29.5943 54.8803C30.2132 54.7474 30.4784 54.3931 31.3625 53.9058V54.4816H32.6002C32.6002 52.7099 32.6444 50.5395 32.6002 48.5019C32.6002 47.2174 31.8487 46.4201 30.611 46.1544ZM31.2299 51.7354C31.1857 51.8683 31.2299 52.0012 31.2299 52.1341C31.2299 53.0642 31.0088 53.3743 30.1248 53.7286C29.5059 53.9501 28.8428 54.0387 28.1798 53.8172C27.4283 53.5958 26.8978 52.9314 26.8978 52.1784C26.8536 51.4254 27.3399 50.6724 28.0914 50.4509C29.1081 50.0965 30.0363 50.318 30.8762 50.9381C31.1415 51.1596 31.3183 51.3811 31.2299 51.7354ZM38.1257 47.3503C39.2751 46.996 40.336 47.2174 41.1316 48.1919L41.2642 48.2805C41.5737 48.0147 41.8389 47.749 42.1925 47.4389C42.0599 47.306 42.0157 47.2174 41.9273 47.0845C40.6454 45.7114 38.1257 45.5343 36.5786 46.6416C34.4126 48.2362 34.4568 51.3368 35.5177 52.9756C36.5344 54.5259 37.9931 55.0575 39.7171 54.836C40.7338 54.7031 41.5737 54.2159 42.2367 53.3743C41.9273 53.1085 41.6179 52.8428 41.3084 52.5327C41.22 52.6213 41.1758 52.6656 41.1316 52.7542C39.9381 54.083 37.9489 53.9501 36.888 52.5327C36.2692 51.6911 36.1365 50.7167 36.3134 49.7422C36.4018 48.6348 36.9764 47.749 38.1257 47.3503ZM47.3202 53.3743C47.2318 53.4186 47.1876 53.4629 47.1876 53.4629C46.834 53.7286 46.4804 53.7729 46.0825 53.6401C45.6847 53.4629 45.6405 53.1085 45.5963 52.7542V47.7047C45.5963 47.6161 45.5963 47.7932 45.6405 47.3503H47.3202V46.0215H45.5521V43.8068H44.2259V46.1987H43.0766C42.9882 46.1987 42.8556 46.2873 42.8556 46.3758C42.8114 46.6859 42.8556 46.9074 42.8556 47.3503H44.2701V53.0199C44.2701 53.7286 44.447 54.3488 45.0658 54.7031C45.7289 55.1018 47.0108 55.0132 47.5855 54.5259C47.6739 54.4816 47.7181 54.3045 47.7181 54.2602C47.5855 53.9944 47.4528 53.6843 47.3202 53.3743Z" fill="url(#paint1_linear_106_994)"/>
</g>
<defs>
<filter id="filter0_d_106_994" x="0" y="0" width="53" height="63" filterUnits="userSpaceOnUse" color-interpolation-filters="sRGB">
<feFlood flood-opacity="0" result="BackgroundImageFix"/>
<feColorMatrix in="SourceAlpha" type="matrix" values="0 0 0 0 0 0 0 0 0 0 0 0 0 0 0 0 0 0 127 0" result="hardAlpha"/>
<feOffset dy="4"/>
<feGaussianBlur stdDeviation="2"/>
<feComposite in2="hardAlpha" operator="out"/>
<feColorMatrix type="matrix" values="0 0 0 0 0 0 0 0 0 0 0 0 0 0 0 0 0 0 0.5 0"/>
<feBlend mode="normal" in2="BackgroundImageFix" result="effect1_dropShadow_106_994"/>
<feBlend mode="normal" in="SourceGraphic" in2="effect1_dropShadow_106_994" result="shape"/>
</filter>
<linearGradient id="paint0_linear_106_994" x1="4" y1="-48.8884" x2="105.831" y2="34.4276" gradientUnits="userSpaceOnUse">
<stop offset="1" stop-color="#CBD5E1"/>
</linearGradient>
<linearGradient id="paint1_linear_106_994" x1="4" y1="-48.8884" x2="105.831" y2="34.4276" gradientUnits="userSpaceOnUse">
<stop offset="1" stop-color="#CBD5E1"/>
</linearGradient>
</defs>
</svg>
