<svg width="53" height="38" viewBox="0 0 53 38" fill="none" xmlns="http://www.w3.org/2000/svg">
<g filter="url(#filter0_d_106_998)">
<path fill-rule="evenodd" clip-rule="evenodd" d="M15.25 10C16.7498 3.33359 20.5002 0 26.5 0C35.5 0 36.625 7.5 41.125 8.75C44.1252 9.58359 46.75 8.33359 49 5C47.5002 11.6664 43.7498 15 37.75 15C28.75 15 27.625 7.5 23.125 6.25C20.1248 5.41641 17.5 6.66641 15.25 10ZM4 25C5.49977 18.3336 9.25023 15 15.25 15C24.25 15 25.375 22.5 29.875 23.75C32.8752 24.5836 35.5 23.3336 37.75 20C36.2502 26.6664 32.4998 30 26.5 30C17.5 30 16.375 22.5 11.875 21.25C8.87477 20.4164 6.25 21.6664 4 25Z" fill="url(#paint0_linear_106_998)"/>
</g>
<defs>
<filter id="filter0_d_106_998" x="0" y="0" width="53" height="38" filterUnits="userSpaceOnUse" color-interpolation-filters="sRGB">
<feFlood flood-opacity="0" result="BackgroundImageFix"/>
<feColorMatrix in="SourceAlpha" type="matrix" values="0 0 0 0 0 0 0 0 0 0 0 0 0 0 0 0 0 0 127 0" result="hardAlpha"/>
<feOffset dy="4"/>
<feGaussianBlur stdDeviation="2"/>
<feComposite in2="hardAlpha" operator="out"/>
<feColorMatrix type="matrix" values="0 0 0 0 0 0 0 0 0 0 0 0 0 0 0 0 0 0 0.5 0"/>
<feBlend mode="normal" in2="BackgroundImageFix" result="effect1_dropShadow_106_998"/>
<feBlend mode="normal" in="SourceGraphic" in2="effect1_dropShadow_106_998" result="shape"/>
</filter>
<linearGradient id="paint0_linear_106_998" x1="4" y1="-26.6664" x2="56.3077" y2="51.7946" gradientUnits="userSpaceOnUse">
<stop offset="1" stop-color="#CBD5E1"/>
</linearGradient>
</defs>
</svg>
