<svg width="53" height="53" viewBox="0 0 53 53" fill="none" xmlns="http://www.w3.org/2000/svg">
<g filter="url(#filter0_d_106_995)">
<path d="M4 22.5V45H49V0H4V22.5ZM40.2628 20.7C41.3406 20.9501 42.3202 21.5138 43.078 22.32C43.4952 22.7543 43.8579 23.2379 44.158 23.76C44.158 23.8176 42.214 25.1316 41.0296 25.866C40.9864 25.8948 40.8136 25.7076 40.6228 25.4232C40.4066 25.0501 40.0994 24.7379 39.7298 24.5157C39.3603 24.2935 38.9405 24.1685 38.5096 24.1524C37.1452 24.0588 36.2668 24.7752 36.274 25.9524C36.2627 26.2455 36.3298 26.5363 36.4684 26.7948C36.7672 27.4176 37.3252 27.7884 39.0748 28.5444C42.2968 29.9304 43.6756 30.8448 44.5324 32.1444C45.49 33.5844 45.7024 35.91 45.0544 37.6308C44.3344 39.5028 42.5704 40.7736 40.0756 41.1948C38.9361 41.3253 37.7849 41.3132 36.6484 41.1588C34.9066 40.8717 33.3021 40.0354 32.0692 38.772C31.6552 38.3148 30.8488 37.1232 30.8992 37.0368C31.0306 36.9392 31.169 36.8514 31.3132 36.774L32.98 35.8524L34.2724 35.1036L34.5424 35.5032C34.9981 36.155 35.578 36.7104 36.2488 37.1376C37.6888 37.8936 39.6544 37.7892 40.6264 36.9144C40.9528 36.5938 41.1563 36.169 41.2017 35.7138C41.2471 35.2586 41.1314 34.8019 40.8748 34.4232C40.5148 33.9228 39.7948 33.5016 37.7824 32.6232C35.4604 31.6224 34.4596 31.0032 33.5452 30.0168C32.9744 29.3659 32.5529 28.5979 32.3104 27.7668C32.1295 26.8173 32.1028 25.8448 32.2312 24.8868C32.71 22.644 34.3912 21.078 36.8464 20.6136C37.9834 20.4729 39.1352 20.5045 40.2628 20.7072V20.7ZM29.7004 22.5864V24.4296H23.8576V41.0724H19.714V24.426H13.8568V22.626C13.8386 22.0053 13.853 21.384 13.9 20.7648C13.9288 20.7324 17.5 20.7324 21.82 20.7324H29.6788L29.7004 22.5864Z" fill="url(#paint0_linear_106_995)"/>
</g>
<defs>
<filter id="filter0_d_106_995" x="0" y="0" width="53" height="53" filterUnits="userSpaceOnUse" color-interpolation-filters="sRGB">
<feFlood flood-opacity="0" result="BackgroundImageFix"/>
<feColorMatrix in="SourceAlpha" type="matrix" values="0 0 0 0 0 0 0 0 0 0 0 0 0 0 0 0 0 0 127 0" result="hardAlpha"/>
<feOffset dy="4"/>
<feGaussianBlur stdDeviation="2"/>
<feComposite in2="hardAlpha" operator="out"/>
<feColorMatrix type="matrix" values="0 0 0 0 0 0 0 0 0 0 0 0 0 0 0 0 0 0 0.5 0"/>
<feBlend mode="normal" in2="BackgroundImageFix" result="effect1_dropShadow_106_995"/>
<feBlend mode="normal" in="SourceGraphic" in2="effect1_dropShadow_106_995" result="shape"/>
</filter>
<linearGradient id="paint0_linear_106_995" x1="4" y1="-39.9996" x2="88.9997" y2="44.9996" gradientUnits="userSpaceOnUse">
<stop offset="1" stop-color="#CBD5E1"/>
</linearGradient>
</defs>
</svg>
